<?xml version="1.0" standalone="no"?>
<!DOCTYPE svg PUBLIC "-//W3C//DTD SVG 20010904//EN"
 "http://www.w3.org/TR/2001/REC-SVG-20010904/DTD/svg10.dtd">
<svg version="1.0" xmlns="http://www.w3.org/2000/svg"
 width="260.000000pt" height="260.000000pt" viewBox="0 0 260.000000 260.000000"
 preserveAspectRatio="xMidYMid meet">
<metadata>
Created by potrace 1.14, written by Peter Selinger 2001-2017
</metadata>
<g transform="translate(0.000000,260.000000) scale(0.100000,-0.100000)"
fill="#000000" stroke="none">
<path d="M1620 1583 c-118 -180 -216 -332 -218 -339 -2 -8 34 -52 80 -99 l83
-85 245 0 c135 -1 260 -1 277 -1 l33 1 -14 38 c-8 20 -32 93 -54 162 -122 384
-205 636 -211 642 -3 3 -103 -140 -221 -319z"/>
<path d="M787 1643 c-3 -5 -46 -136 -97 -293 -50 -157 -109 -339 -131 -405
-21 -66 -39 -127 -39 -135 0 -13 37 -15 272 -15 l272 1 163 219 c132 175 161
221 151 231 -13 11 -53 39 -283 195 -60 40 -112 76 -115 79 -22 22 -190 129
-193 123z"/>
</g>
</svg>
