<?xml version="1.0" standalone="no"?>
<!DOCTYPE svg PUBLIC "-//W3C//DTD SVG 20010904//EN"
 "http://www.w3.org/TR/2001/REC-SVG-20010904/DTD/svg10.dtd">
<svg version="1.0" xmlns="http://www.w3.org/2000/svg"
 width="260.000000pt" height="260.000000pt" viewBox="0 0 260.000000 260.000000"
 preserveAspectRatio="xMidYMid meet">
<metadata>
Created by potrace 1.14, written by Peter Selinger 2001-2017
</metadata>
<g transform="translate(0.000000,260.000000) scale(0.100000,-0.100000)"
fill="#000000" stroke="none">
<path d="M2130 2182 c0 -4 -7 -17 -16 -27 -8 -11 -111 -166 -229 -345 -118
-179 -217 -329 -222 -335 -9 -12 -83 -122 -98 -147 -46 -76 -121 -187 -128
-188 -8 0 -88 50 -97 61 -4 4 -107 75 -303 209 -12 8 -135 92 -274 187 -138
95 -258 175 -265 178 -10 4 -28 -38 -66 -157 -29 -90 -77 -237 -107 -328 -29
-91 -90 -280 -136 -420 -45 -140 -94 -293 -110 -340 -15 -46 -26 -86 -24 -88
1 -2 197 -3 435 -4 415 0 432 1 445 19 8 11 44 60 82 110 37 50 77 104 88 119
11 15 31 42 45 59 14 18 32 43 40 54 71 103 244 325 251 324 5 -2 55 -51 111
-109 57 -59 115 -119 130 -134 l28 -28 430 0 c236 -1 431 2 433 6 2 4 -44 156
-104 337 -59 182 -156 480 -215 663 -60 182 -112 332 -116 332 -4 0 -8 -4 -8
-8z"/>
</g>
</svg>
