<?xml version="1.0" standalone="no"?>
<!DOCTYPE svg PUBLIC "-//W3C//DTD SVG 20010904//EN"
 "http://www.w3.org/TR/2001/REC-SVG-20010904/DTD/svg10.dtd">
<svg version="1.0" xmlns="http://www.w3.org/2000/svg"
 width="260.000000pt" height="260.000000pt" viewBox="0 0 260.000000 260.000000"
 preserveAspectRatio="xMidYMid meet">
<metadata>
Created by potrace 1.14, written by Peter Selinger 2001-2017
</metadata>
<g transform="translate(0.000000,260.000000) scale(0.100000,-0.100000)"
fill="#000000" stroke="none">
<path d="M1905 1839 c-126 -192 -234 -355 -240 -362 -12 -15 -88 -128 -95
-142 -12 -24 -123 -185 -131 -190 -7 -5 -85 39 -99 56 -4 4 -167 117 -274 189
-13 8 -40 27 -62 41 -21 15 -144 99 -273 188 -129 88 -237 161 -241 161 -3 0
-30 -73 -58 -162 -29 -90 -77 -237 -107 -328 -29 -91 -90 -280 -136 -420 -45
-140 -94 -293 -110 -340 -15 -46 -26 -86 -24 -88 2 -2 197 -4 435 -4 415 0
432 1 445 19 8 11 44 60 82 110 37 50 77 103 88 118 82 112 319 432 326 440 6
5 24 -7 47 -32 20 -23 81 -87 134 -141 l98 -100 434 0 c332 -1 434 2 431 11
-2 7 -51 158 -109 337 -236 732 -305 946 -311 968 -3 12 -9 22 -13 22 -4 0
-110 -158 -237 -351z"/>
</g>
</svg>
